<?xml version="1.0" encoding="UTF-8" standalone="no"?>
<!-- Uploaded to: SVG Repo, www.svgrepo.com, Generator: SVG Repo Mixer Tools -->

<svg
   width="600.15558"
   height="600.15558"
   viewBox="0 0 18.004667 18.004667"
   fill="none"
   version="1.1"
   id="svg1"
   sodipodi:docname="nota.svg"
   inkscape:version="1.3.2 (1:1.3.2+202311252150+091e20ef0f)"
   xmlns:inkscape="http://www.inkscape.org/namespaces/inkscape"
   xmlns:sodipodi="http://sodipodi.sourceforge.net/DTD/sodipodi-0.dtd"
   xmlns="http://www.w3.org/2000/svg"
   xmlns:svg="http://www.w3.org/2000/svg">
  <defs
     id="defs1" />
  <sodipodi:namedview
     id="namedview1"
     pagecolor="#ffffff"
     bordercolor="#666666"
     borderopacity="1.0"
     inkscape:showpageshadow="2"
     inkscape:pageopacity="0.0"
     inkscape:pagecheckerboard="0"
     inkscape:deskcolor="#d1d1d1"
     inkscape:zoom="0.85875"
     inkscape:cx="299.85444"
     inkscape:cy="397.08879"
     inkscape:window-width="1920"
     inkscape:window-height="1016"
     inkscape:window-x="0"
     inkscape:window-y="27"
     inkscape:window-maximized="1"
     inkscape:current-layer="svg1" />
  <path
     d="m 16.822435,11.002335 h -4.22 c -0.5601,0 -0.8401,0 -1.054,0.109 -0.1882,0.0959 -0.3412,0.2488 -0.437,0.437 -0.109,0.2139 -0.109,0.4939 -0.109,1.054 v 4.22 m 5.9999,-7.0931 v -5.5269 c 0,-1.1201 0,-1.68016 -0.218,-2.10798 -0.1917,-0.37633 -0.4977,-0.68229 -0.874,-0.87403 -0.4278,-0.21799 -0.9879,-0.21799 -2.108,-0.21799 h -9.6 c -1.1201,0 -1.68016,0 -2.10798,0.21799 -0.37633,0.19174 -0.68229,0.4977 -0.87403,0.87403 -0.21799,0.42782 -0.21799,0.98788 -0.21799,2.10798 v 9.6 c 0,1.1201 0,1.6802 0.21799,2.108 0.19174,0.3763 0.4977,0.6823 0.87403,0.874 0.42782,0.218 0.98788,0.218 2.10798,0.218 h 5.7496 c 0.5082,0 0.7622,0 1.0002,-0.0593 0.211,-0.0525 0.412,-0.1391 0.5951,-0.2563 0.2066,-0.1322 0.3811,-0.3169 0.7302,-0.6861 l 3.8503,-4.0731 c 0.3232,-0.3419 0.4847,-0.5128 0.6001,-0.7096 0.1023,-0.1746 0.1775,-0.3637 0.2231,-0.5608 0.0514,-0.2223 0.0514,-0.4575 0.0514,-0.9279 z"
     stroke="#000000"
     stroke-width="2"
     stroke-linecap="round"
     stroke-linejoin="round"
     id="path1"
     style="stroke:#ff8400;stroke-opacity:1" />
  <rect
     style="fill:#ffffff;stroke:#ff8400;stroke-width:0.375069;stroke-linecap:round;stroke-linejoin:round"
     id="rect2"
     width="10.863798"
     height="0.27875161"
     x="3.5041504"
     y="4.5389328" />
  <rect
     style="fill:#ffffff;stroke:#ff8400;stroke-width:0.375069;stroke-linecap:round;stroke-linejoin:round"
     id="rect2-5"
     width="10.863798"
     height="0.27875161"
     x="3.5041504"
     y="7.1052823" />
  <rect
     style="fill:#ffffff;stroke:#ff8400;stroke-width:0.375069;stroke-linecap:round;stroke-linejoin:round"
     id="rect2-2"
     width="10.863798"
     height="0.27875161"
     x="3.5041504"
     y="9.6716223" />
  <rect
     style="fill:#ffffff;stroke:#ff8400;stroke-width:0.320439;stroke-linecap:round;stroke-linejoin:round"
     id="rect2-7"
     width="7.0531425"
     height="0.31338981"
     x="3.4768353"
     y="12.210667" />
</svg>
